# Blender 4.5.0
# www.blender.org
mtllib model1.mtl
o Cube
v 1.000000 1.000000 -1.000000
v 1.000000 -1.000000 -1.000000
v 1.000000 1.000000 1.000000
v 1.000000 -1.000000 1.000000
v -1.000000 1.000000 -1.000000
v -1.000000 -1.000000 -1.000000
v -1.000000 1.000000 1.000000
v -1.000000 -1.000000 1.000000
v 1.000000 2.000000 1.000000
v -1.000000 2.500000 0.500000
v 1.000000 2.000000 -1.000000
v -1.000000 2.500000 -0.500000
v 1.000000 1.000000 1.699816
v -1.000000 3.500000 0.500000
v -1.000000 3.500000 -0.500000
v -0.300000 2.500000 0.500000
v -0.300000 2.500000 -0.500000
v -0.300000 3.500000 0.500000
v -0.300000 3.500000 -0.500000
v 1.000000 3.800000 1.000000
v 0.800000 4.000000 0.800000
v 0.941421 3.941422 0.941421
v 1.000000 3.800000 -1.000000
v 0.800000 4.000000 -0.800000
v 0.941421 3.941422 -0.941421
v -0.800000 4.000000 0.800000
v -0.941421 3.941422 0.941421
v -0.800000 4.000000 -0.800000
v -0.941421 3.941422 -0.941421
v -0.800000 2.000000 1.000000
v -1.000000 2.200000 0.800000
v -1.000000 2.000000 0.800000
v -1.141421 2.000000 1.141421
v -0.941421 2.058579 0.941421
v -1.000000 2.200000 -0.800000
v -0.800000 2.000000 -1.000000
v -1.000000 1.800000 -1.000000
v -1.200000 2.000000 -1.000000
v -1.000000 2.000000 -0.800000
v -0.941421 2.058579 -0.941421
v -1.000000 3.680000 0.800000
v -0.800000 3.800000 1.000000
v -0.941439 3.941378 0.941439
v -1.000000 3.800000 0.800000
v -0.941421 3.764853 0.941421
v -0.800000 3.800000 -1.000000
v -1.000000 3.680000 -0.800000
v -1.000000 3.800000 -0.800000
v -0.941439 3.941378 -0.941439
v -0.941421 3.764853 -0.941421
v 1.000000 2.000000 1.499142
v 1.000000 1.800000 1.699816
v 1.000000 1.990211 1.561154
v 1.000000 1.961803 1.617095
v 1.000000 1.917557 1.661491
v 1.000000 1.861803 1.689994
v -1.494845 1.800000 1.494845
v -1.309406 2.000000 1.309406
v -1.511221 2.000000 1.295516
v -1.485769 1.861803 1.485769
v -1.459429 1.917557 1.459429
v -1.418404 1.961803 1.418404
v -1.366710 1.990211 1.366710
v -1.683440 2.000000 -0.800672
v -1.499816 2.000000 -1.000000
v -1.699816 1.800000 -1.000000
v -1.636441 2.000000 -0.941618
v -1.663400 1.966341 -0.966453
v -1.641237 1.941421 -1.000000
v -1.695019 1.941421 -0.941618
v -1.494845 1.200000 1.494845
v -1.309406 1.000000 1.309406
v -1.295516 1.000000 1.511221
v -1.485769 1.138197 1.485769
v -1.459429 1.082443 1.459429
v -1.418404 1.038197 1.418404
v -1.366710 1.009789 1.366710
v -1.499142 1.000000 -1.000000
v -1.699816 1.200000 -1.000000
v -1.561154 1.009789 -1.000000
v -1.617095 1.038197 -1.000000
v -1.661491 1.082443 -1.000000
v -1.689994 1.138197 -1.000000
v 1.000000 0.333333 -1.000000
v 1.000000 -0.333333 -1.000000
v -1.000000 -0.333333 1.000000
v -1.000000 0.333333 1.000000
v 1.000000 0.333333 1.000000
v 1.000000 -0.333333 1.000000
v -1.000000 0.333333 -1.000000
v -1.000000 -0.333333 -1.000000
v 0.787868 0.333333 -0.787868
v 0.787868 -0.333333 -0.787868
v -0.787868 -0.333333 0.787868
v -0.787868 0.333333 0.787868
v 0.787868 0.333333 0.787868
v 0.787868 -0.333333 0.787868
v -0.787868 0.333333 -0.787868
v -0.787868 -0.333333 -0.787868
v -0.022834 3.800000 1.000000
v -0.454252 2.000000 1.000000
v -0.592137 2.908392 1.000000
v 0.101166 3.062154 1.000000
v 0.417197 3.298758 1.000000
v -0.315947 3.154518 1.000000
v -0.022834 3.800000 1.200000
v -0.592137 2.908392 1.200000
v 0.101166 3.062154 1.200000
v -0.454252 2.000000 1.200000
v 0.417197 3.298758 1.200000
v -0.315947 3.154518 1.200000
vn -0.0000 -0.0000 1.0000
vn -1.0000 -0.0000 -0.0000
vn -0.0000 -1.0000 -0.0000
vn 1.0000 -0.0000 -0.0000
vn -0.0000 -0.0000 -1.0000
vn -0.0000 1.0000 -0.0000
vn -0.0000 0.9239 0.3827
vn 0.3827 0.9239 -0.0000
vn 0.9239 0.3827 -0.0000
vn -0.3827 0.9239 -0.0000
vn -0.0000 0.9239 -0.3827
vn -0.4326 0.8652 0.2534
vn -0.3131 0.4965 -0.8096
vn -0.7771 -0.0001 0.6293
vn -0.7771 -0.0001 -0.6293
vn -0.9239 -0.0000 0.3827
vn -0.3827 -0.0000 0.9239
vn -0.9239 -0.0000 -0.3827
vn -0.3827 -0.0000 -0.9239
vn -0.9239 0.3827 -0.0000
vn -0.0000 0.3827 0.9239
vn -0.0000 0.3827 -0.9239
vn -0.9504 0.1771 0.2558
vn -0.6754 0.5508 0.4904
vn -0.3455 0.7900 0.5065
vn -0.1247 0.9169 0.3792
vn -0.0109 0.9874 0.1578
vn -0.0128 0.9877 0.1559
vn -0.0372 0.8910 0.4525
vn -0.0579 0.7071 0.7047
vn -0.0730 0.4540 0.8880
vn -0.0809 0.1564 0.9844
vn -0.6893 0.6893 -0.2233
vn -0.2789 0.6893 -0.6687
vn -0.7049 0.2853 -0.6494
vn -0.2558 -0.1771 0.9504
vn -0.4904 -0.5508 0.6754
vn -0.5065 -0.7900 0.3455
vn -0.3792 -0.9169 0.1247
vn -0.1578 -0.9874 0.0109
vn -0.9844 -0.1564 0.0809
vn -0.8880 -0.4540 0.0730
vn -0.7047 -0.7071 0.0579
vn -0.4525 -0.8910 0.0372
vn -0.1559 -0.9877 0.0128
vn -0.0819 -0.0000 0.9966
vn -0.9966 -0.0000 0.0819
vn 0.8304 -0.5572 -0.0000
vn 0.2165 -0.9763 -0.0000
vn -0.1930 0.9812 -0.0000
vn -0.8862 0.4634 -0.0000
vn -0.8428 0.5382 -0.0000
vn 0.9105 -0.4135 -0.0000
vt 0.541667 0.750000
vt 0.625000 0.750000
vt 0.625000 1.000000
vt 0.541667 1.000000
vt 0.541667 0.000000
vt 0.625000 0.000000
vt 0.625000 0.250000
vt 0.541667 0.250000
vt 0.125000 0.500000
vt 0.375000 0.500000
vt 0.375000 0.750000
vt 0.125000 0.750000
vt 0.541667 0.500000
vt 0.625000 0.500000
vt 0.875000 0.562500
vt 0.875000 0.687500
vt 0.875000 0.687500
vt 0.650000 0.725000
vt 0.850000 0.725000
vt 0.871339 0.746339
vt 0.628661 0.746339
vt 0.650000 0.525000
vt 0.626731 0.501731
vt 0.625000 0.750000
vt 0.625000 0.500000
vt 0.850000 0.525000
vt 0.872649 0.504972
vt 0.850000 0.750000
vt 0.874394 0.750000
vt 0.875000 0.725842
vt 0.875000 0.725000
vt 0.875000 0.750000
vt 0.625000 0.250000
vt 0.625000 0.274712
vt 0.875000 0.725000
vt 0.875000 0.749549
vt 0.850220 0.750000
vt 0.871340 0.746340
vt 0.875000 0.725000
vt 0.625000 0.275000
vt 0.625000 0.250815
vt 0.625000 0.257320
vt 0.875000 0.525000
vt 0.875000 0.525000
vt 0.875000 0.500000
vt 0.875000 0.500000
vt 0.806782 0.750000
vt 0.737419 0.750000
vt 0.824115 0.750000
vt 0.752979 0.750000
vt 0.875000 0.525000
vt 0.872650 0.504970
vt 0.875000 0.525000
vt 0.625000 0.257322
vt 0.625000 0.000829
vt 0.625000 0.019974
vt 0.625000 0.006983
vt 0.625000 0.011706
vt 0.625000 0.016941
vt 0.875000 0.750000
vt 0.875000 0.750000
vt 0.625000 0.750000
vt 0.868017 0.750000
vt 0.625102 0.750104
vt 0.625000 0.993017
vt 0.625000 0.996764
vt 0.625000 0.750097
vt 0.625000 0.999171
vt 0.625000 0.750025
vt 0.625000 1.000000
vt 0.875000 0.519974
vt 0.875000 0.506218
vt 0.875000 0.503637
vt 0.875000 0.505850
vt 0.625000 0.250000
vt 0.625000 0.250000
vt 0.625000 0.244150
vt 0.875000 0.730026
vt 0.625000 1.000000
vt 0.625000 0.980026
vt 0.625000 0.249974
vt 0.625000 0.000829
vt 0.625000 0.249900
vt 0.625000 0.003235
vt 0.625000 0.000000
vt 0.625000 0.230026
vt 0.375000 0.250000
vt 0.458333 0.250000
vt 0.458333 0.500000
vt 0.458333 0.750000
vt 0.375000 0.000000
vt 0.458333 0.000000
vt 0.458333 1.000000
vt 0.375000 1.000000
vt 0.697900 0.750000
vt 0.789598 0.750000
s 0
usemtl Material
f 88/1/1 3/2/1 7/3/1 87/4/1
f 87/5/2 7/6/2 5/7/2 90/8/2
f 6/9/3 2/10/3 4/11/3 8/12/3
f 84/13/4 1/14/4 3/2/4 88/1/4
f 90/8/5 5/7/5 1/14/5 84/13/5
f 12/15/6 10/16/6 16/16/6 17/15/6
f 3/2/4 1/14/4 11/14/4 9/2/4
f 17/15/2 16/16/2 18/17/2 19/15/2
f 15/15/1 12/15/1 17/15/1 19/15/1
f 14/17/3 15/15/3 19/15/3 18/17/3
f 10/16/5 14/17/5 18/17/5 16/16/5
f 21/18/7 26/19/7 27/20/7 22/21/7
f 24/22/8 21/18/8 22/21/8 25/23/8
f 25/23/9 22/21/9 20/24/9 23/25/9
f 26/19/10 28/26/10 29/27/10 27/20/10
f 28/26/11 24/22/11 25/23/11 29/27/11
f 24/22/6 28/26/6 26/19/6 21/18/6
f 9/2/4 11/14/4 23/25/4 20/24/4
f 30/28/12 34/29/12 31/30/12 32/31/12 33/32/12
f 35/7/13 40/33/13 36/34/13 37/7/13 38/7/13 39/7/13
f 41/35/14 45/36/14 42/37/14 43/38/14 44/39/14
f 46/40/15 50/41/15 47/33/15 48/33/15 49/42/15
f 41/35/16 31/30/16 34/29/16 45/36/16
f 45/36/17 34/29/17 30/28/17 42/37/17
f 35/43/18 47/44/18 50/45/18 40/46/18
f 40/33/19 50/41/19 46/40/19 36/34/19
f 30/28/1 101/47/1 103/48/1 102/49/1 100/50/1 42/37/1
f 10/16/2 12/15/2 35/43/2 39/51/2 32/31/2 31/30/2
f 14/17/2 10/16/2 31/30/2 41/35/2
f 1/14/5 5/7/5 37/7/5 36/34/5 11/14/5
f 12/15/2 15/15/2 47/44/2 35/43/2
f 11/14/5 36/34/5 46/40/5 23/25/5
f 27/20/20 29/27/20 49/52/20 48/53/20 44/39/20 43/38/20
f 22/21/21 27/20/21 43/38/21 42/37/21 100/50/21 20/24/21
f 15/15/2 14/17/2 41/35/2 44/39/2 48/53/2 47/44/2
f 29/54/22 25/23/22 23/25/22 46/40/22 49/42/22
f 57/6/23 60/55/23 59/56/23
f 60/55/24 61/6/24 59/56/24
f 61/6/25 62/57/25 59/56/25
f 62/57/26 63/58/26 59/56/26
f 63/58/27 58/59/27 59/56/27
f 51/2/28 58/60/28 63/61/28 53/62/28
f 53/62/29 63/61/29 62/63/29 54/64/29
f 54/64/30 62/65/30 61/66/30 55/67/30
f 55/67/31 61/66/31 60/68/31 56/69/31
f 56/69/32 60/68/32 57/70/32 52/2/32
f 9/2/6 101/47/6 30/28/6 33/32/6 58/60/6 51/2/6
f 3/2/4 9/2/4 51/2/4 53/62/4 54/64/4 55/67/4 56/69/4 52/2/4 13/2/4
f 64/71/33 67/72/33 68/73/33 70/74/33
f 65/75/34 69/7/34 68/76/34 67/7/34
f 66/75/35 70/77/35 68/76/35 69/7/35
f 33/32/6 32/31/6 39/51/6 38/46/6 65/46/6 67/72/6 64/71/6 59/78/6 58/60/6
f 71/79/36 74/3/36 73/80/36
f 74/3/37 75/3/37 73/80/37
f 75/3/38 76/3/38 73/80/38
f 76/3/39 77/3/39 73/80/39
f 77/3/40 72/3/40 73/80/40
f 71/6/41 79/7/41 83/81/41 74/82/41
f 74/82/42 83/81/42 82/83/42 75/84/42
f 75/84/43 82/83/43 81/76/43 76/85/43
f 76/85/44 81/76/44 80/76/44 77/6/44
f 77/6/45 80/76/45 78/75/45 72/6/45
f 7/3/3 3/2/3 13/2/3 73/80/3 72/3/3
f 71/79/46 73/80/46 13/2/46 52/2/46 57/70/46
f 5/7/3 7/6/3 72/6/3 78/75/3
f 79/7/47 71/6/47 57/6/47 59/56/47 64/86/47 70/77/47 66/75/47
f 38/7/5 37/7/5 5/7/5 78/75/5 80/76/5 81/76/5 82/83/5 83/81/5 79/7/5 66/75/5 69/7/5 65/75/5
f 6/87/5 91/88/5 85/89/5 2/10/5
f 90/8/3 84/13/3 92/13/3 98/8/3
f 2/10/4 85/89/4 89/90/4 4/11/4
f 84/13/3 88/1/3 96/1/3 92/13/3
f 8/91/2 86/92/2 91/88/2 6/87/2
f 87/5/3 90/8/3 98/8/3 95/5/3
f 4/11/1 89/90/1 86/93/1 8/94/1
f 88/1/3 87/4/3 95/4/3 96/1/3
f 99/88/5 98/8/5 92/13/5 93/89/5
f 93/89/4 92/13/4 96/1/4 97/90/4
f 94/92/2 95/5/2 98/8/2 99/88/2
f 97/90/1 96/1/1 95/4/1 94/93/1
f 86/93/6 89/90/6 97/90/6 94/93/6
f 91/88/6 86/92/6 94/92/6 99/88/6
f 89/90/6 85/89/6 93/89/6 97/90/6
f 85/89/6 91/88/6 99/88/6 93/89/6
f 101/47/48 104/95/48 110/95/48 109/47/48
f 105/96/1 104/95/1 101/47/1 9/2/1 20/24/1 100/50/1
f 106/50/1 107/49/1 108/48/1 109/47/1 110/95/1 111/96/1
f 102/49/49 103/48/49 108/48/49 107/49/49
f 104/95/50 105/96/50 111/96/50 110/95/50
f 103/48/51 101/47/51 109/47/51 108/48/51
f 100/50/52 102/49/52 107/49/52 106/50/52
f 105/96/53 100/50/53 106/50/53 111/96/53
