{
  "accessors": [
    {
      "bufferView": 2,
      "componentType": 5126,
      "count": 2652,
      "max": [
        2.7988386154174805,
        2.2309999465942383,
        4.182476043701172
      ],
      "min": [
        -2.821078300476074,
        -2.756476402282715,
        -2.384185791015625e-07
      ],
      "type": "VEC3"
    },
    {
      "bufferView": 2,
      "byteOffset": 31824,
      "componentType": 5126,
      "count": 2652,
      "max": [
        1.0,
        1.0,
        1.0
      ],
      "min": [
        -1.0,
        -1.0,
        -1.0
      ],
      "type": "VEC3"
    },
    {
      "bufferView": 3,
      "componentType": 5126,
      "count": 2652,
      "max": [
        1.0,
        0.9999999403953552,
        0.999994158744812,
        1.0
      ],
      "min": [
        -1.0,
        -1.0,
        -0.9999945163726807,
        -1.0
      ],
      "type": "VEC4"
    },
    {
      "bufferView": 1,
      "componentType": 5126,
      "count": 2652,
      "max": [
        0.9846705794334412,
        0.9968453645706177
      ],
      "min": [
        0.005855831317603588,
        0.004455948248505592
      ],
      "type": "VEC2"
    },
    {
      "bufferView": 1,
      "byteOffset": 21216,
      "componentType": 5126,
      "count": 2652,
      "max": [
        0.9846705794334412,
        0.9968453645706177
      ],
      "min": [
        0.005855831317603588,
        0.004455948248505592
      ],
      "type": "VEC2"
    },
    {
      "bufferView": 1,
      "byteOffset": 42432,
      "componentType": 5126,
      "count": 2652,
      "max": [
        0.9846705794334412,
        0.9968453645706177
      ],
      "min": [
        0.005855831317603588,
        0.004455948248505592
      ],
      "type": "VEC2"
    },
    {
      "bufferView": 1,
      "byteOffset": 63648,
      "componentType": 5126,
      "count": 2652,
      "max": [
        0.9846705794334412,
        0.9968453645706177
      ],
      "min": [
        0.005855831317603588,
        0.004455948248505592
      ],
      "type": "VEC2"
    },
    {
      "bufferView": 1,
      "byteOffset": 84864,
      "componentType": 5126,
      "count": 2652,
      "max": [
        0.9846705794334412,
        0.9968453645706177
      ],
      "min": [
        0.005855831317603588,
        0.004455948248505592
      ],
      "type": "VEC2"
    },
    {
      "bufferView": 1,
      "byteOffset": 106080,
      "componentType": 5126,
      "count": 2652,
      "max": [
        0.9846705794334412,
        0.9968453645706177
      ],
      "min": [
        0.005855831317603588,
        0.004455948248505592
      ],
      "type": "VEC2"
    },
    {
      "bufferView": 1,
      "byteOffset": 127296,
      "componentType": 5126,
      "count": 2652,
      "max": [
        0.9846705794334412,
        0.9968453645706177
      ],
      "min": [
        0.005855831317603588,
        0.004455948248505592
      ],
      "type": "VEC2"
    },
    {
      "bufferView": 1,
      "byteOffset": 148512,
      "componentType": 5126,
      "count": 2652,
      "max": [
        0.9846705794334412,
        0.9968453645706177
      ],
      "min": [
        0.005855831317603588,
        0.004455948248505592
      ],
      "type": "VEC2"
    },
    {
      "bufferView": 1,
      "byteOffset": 169728,
      "componentType": 5126,
      "count": 2652,
      "max": [
        0.9846705794334412,
        0.9968453645706177
      ],
      "min": [
        0.005855831317603588,
        0.004455948248505592
      ],
      "type": "VEC2"
    },
    {
      "bufferView": 1,
      "byteOffset": 190944,
      "componentType": 5126,
      "count": 2652,
      "max": [
        0.9846705794334412,
        0.9968453645706177
      ],
      "min": [
        0.005855831317603588,
        0.004455948248505592
      ],
      "type": "VEC2"
    },
    {
      "bufferView": 0,
      "componentType": 5125,
      "count": 7632,
      "type": "SCALAR"
    }
  ],
  "asset": {
    "extras": {
      "author": "Chuunibyo (https://sketchfab.com/Chuunibyo)",
      "license": "CC-BY-NC-4.0 (http://creativecommons.org/licenses/by-nc/4.0/)",
      "source": "https://sketchfab.com/3d-models/pokecentre-1ab0a6350f2640b2bcd0f3510242264c",
      "title": "PokeCentre"
    },
    "generator": "Sketchfab-12.68.0",
    "version": "2.0"
  },
  "bufferViews": [
    {
      "buffer": 0,
      "byteLength": 30528,
      "name": "floatBufferViews",
      "target": 34963
    },
    {
      "buffer": 0,
      "byteLength": 212160,
      "byteOffset": 30528,
      "byteStride": 8,
      "name": "floatBufferViews",
      "target": 34962
    },
    {
      "buffer": 0,
      "byteLength": 63648,
      "byteOffset": 242688,
      "byteStride": 12,
      "name": "floatBufferViews",
      "target": 34962
    },
    {
      "buffer": 0,
      "byteLength": 42432,
      "byteOffset": 306336,
      "byteStride": 16,
      "name": "floatBufferViews",
      "target": 34962
    }
  ],
  "buffers": [
    {
      "byteLength": 348768,
      "uri": "scene.bin"
    }
  ],
  "images": [
    {
      "uri": "textures/DefaultMaterial_baseColor.png"
    },
    {
      "uri": "textures/DefaultMaterial_metallicRoughness.png"
    },
    {
      "uri": "textures/DefaultMaterial_emissive.png"
    },
    {
      "uri": "textures/DefaultMaterial_normal.png"
    }
  ],
  "materials": [
    {
      "alphaMode": "BLEND",
      "doubleSided": true,
      "emissiveFactor": [
        1.0,
        1.0,
        1.0
      ],
      "emissiveTexture": {
        "index": 2
      },
      "name": "DefaultMaterial",
      "normalTexture": {
        "index": 3
      },
      "pbrMetallicRoughness": {
        "baseColorTexture": {
          "index": 0
        },
        "metallicRoughnessTexture": {
          "index": 1
        }
      }
    }
  ],
  "meshes": [
    {
      "name": "PokeCentre_DefaultMaterial_0",
      "primitives": [
        {
          "attributes": {
            "NORMAL": 1,
            "POSITION": 0,
            "TANGENT": 2,
            "TEXCOORD_0": 3,
            "TEXCOORD_1": 4,
            "TEXCOORD_2": 5,
            "TEXCOORD_3": 6,
            "TEXCOORD_4": 7,
            "TEXCOORD_5": 8,
            "TEXCOORD_6": 9,
            "TEXCOORD_7": 10,
            "TEXCOORD_8": 11,
            "TEXCOORD_9": 12
          },
          "indices": 13,
          "material": 0,
          "mode": 4
        }
      ]
    }
  ],
  "nodes": [
    {
      "children": [
        1
      ],
      "matrix": [
        1.0,
        0.0,
        0.0,
        0.0,
        0.0,
        2.220446049250313e-16,
        -1.0,
        0.0,
        0.0,
        1.0,
        2.220446049250313e-16,
        0.0,
        0.0,
        0.0,
        0.0,
        1.0
      ],
      "name": "Sketchfab_model"
    },
    {
      "children": [
        2
      ],
      "matrix": [
        1.0,
        0.0,
        0.0,
        0.0,
        0.0,
        0.0,
        1.0,
        0.0,
        0.0,
        -1.0,
        0.0,
        0.0,
        0.0,
        0.0,
        0.0,
        1.0
      ],
      "name": "5e93f3dfbb0d4810aa20a852d852fee4.fbx"
    },
    {
      "children": [
        3
      ],
      "name": "RootNode"
    },
    {
      "children": [
        4
      ],
      "matrix": [
        1.0,
        0.0,
        0.0,
        0.0,
        0.0,
        2.220446049250313e-16,
        -1.0,
        0.0,
        0.0,
        1.0,
        2.220446049250313e-16,
        0.0,
        2.5,
        0.0,
        2.0,
        1.0
      ],
      "name": "PokeCentre"
    },
    {
      "mesh": 0,
      "name": "PokeCentre_DefaultMaterial_0"
    }
  ],
  "samplers": [
    {
      "magFilter": 9729,
      "minFilter": 9987,
      "wrapS": 10497,
      "wrapT": 10497
    }
  ],
  "scene": 0,
  "scenes": [
    {
      "name": "Sketchfab_Scene",
      "nodes": [
        0
      ]
    }
  ],
  "textures": [
    {
      "sampler": 0,
      "source": 0
    },
    {
      "sampler": 0,
      "source": 1
    },
    {
      "sampler": 0,
      "source": 2
    },
    {
      "sampler": 0,
      "source": 3
    }
  ]
}
